<?xml version="1.0" encoding="UTF-8" standalone="no"?>
<!DOCTYPE svg PUBLIC "-//W3C//DTD SVG 1.1//EN" "http://www.w3.org/Graphics/SVG/1.1/DTD/svg11.dtd">
<svg width="100%" height="100%" viewBox="0 0 800 1280" version="1.1" xmlns="http://www.w3.org/2000/svg" xmlns:xlink="http://www.w3.org/1999/xlink" xml:space="preserve" xmlns:serif="http://www.serif.com/" style="fill-rule:evenodd;clip-rule:evenodd;stroke-linejoin:round;stroke-miterlimit:2;">
    <g id="day" transform="matrix(0.725811,0,0,0.725811,-10.3839,-488.076)">
        <rect x="0" y="2192.18" width="1125" height="243.822" style="fill:rgb(25,125,88);"/>
        <g transform="matrix(1,0,0,1.16145,-16.79,-393.291)">
            <path d="M389.797,2436C404.142,2383.51 432.831,2278.52 471.034,2245.09C508.235,2212.53 578.19,2230.61 619.019,2235.4C653.559,2239.46 684.699,2258.72 716.006,2273.86C750.954,2290.77 794.377,2320.38 828.704,2336.84C858.73,2351.24 892.076,2357.97 921.972,2372.63C952.544,2387.63 996.223,2416.26 1012.14,2426.82C1015.09,2428.78 1016.67,2433.59 1017.47,2436" style="fill:rgb(156,179,255);"/>
        </g>
        <g transform="matrix(0.661352,0,0,0.661352,180.322,732.273)">
            <g transform="matrix(3,0,0,3,-251.024,1830.52)">
                <path d="M0,125.644L284.361,125.644C284.361,125.644 262.661,100.095 261.307,96.246C259.949,92.396 242.771,64.748 239.606,62.998C236.44,61.248 232.825,56.348 232.825,56.348C232.825,56.348 221.974,74.198 220.619,74.897C219.262,75.596 216.55,78.396 216.55,78.396C216.55,78.396 204.344,53.198 199.371,50.398C194.398,47.598 191.231,40.948 186.711,34.998C182.189,29.049 164.56,3.5 164.56,3.5L160.941,5.6L155.517,0C155.517,0 146.927,14 146.023,16.1C145.12,18.2 141.954,22.049 140.147,25.549C138.338,29.049 132.46,40.599 127.487,43.748C122.515,46.898 113.926,55.998 113.926,55.998C113.926,55.998 108.953,48.998 106.692,44.798C104.433,40.598 97.65,34.65 94.938,32.549C92.227,30.449 86.8,36.049 84.087,38.849C81.375,41.649 78.663,45.148 75.951,46.898C73.238,48.648 66.457,53.547 65.1,57.047C63.745,60.547 59.224,66.147 54.702,69.647C50.182,73.147 36.618,82.246 34.357,85.746C32.097,89.246 31.646,96.945 27.576,100.445C23.509,103.945 4.521,119.695 0,125.644" style="fill:rgb(65,91,75);fill-rule:nonzero;"/>
            </g>
            <g transform="matrix(3,0,0,3,562.5,1830.52)">
                <path d="M0,125.644L284.361,125.644C284.361,125.644 262.661,100.095 261.307,96.246C259.949,92.396 242.771,64.748 239.606,62.998C236.44,61.248 232.825,56.348 232.825,56.348C232.825,56.348 221.974,74.198 220.619,74.897C219.262,75.596 216.55,78.396 216.55,78.396C216.55,78.396 204.344,53.198 199.371,50.398C194.398,47.598 191.231,40.948 186.711,34.998C182.189,29.049 164.56,3.5 164.56,3.5L160.941,5.6L155.517,0C155.517,0 146.927,14 146.023,16.1C145.12,18.2 141.954,22.049 140.147,25.549C138.338,29.049 132.46,40.599 127.487,43.748C122.515,46.898 113.926,55.998 113.926,55.998C113.926,55.998 108.953,48.998 106.692,44.798C104.433,40.598 97.65,34.65 94.938,32.549C92.227,30.449 86.8,36.049 84.087,38.849C81.375,41.649 78.663,45.148 75.951,46.898C73.238,48.648 66.457,53.547 65.1,57.047C63.745,60.547 59.224,66.147 54.702,69.647C50.182,73.147 36.618,82.246 34.357,85.746C32.097,89.246 31.646,96.945 27.576,100.445C23.509,103.945 4.521,119.695 0,125.644" style="fill:rgb(65,91,75);fill-rule:nonzero;"/>
            </g>
        </g>
        <g transform="matrix(1,0,0,1,0,1)">
            <g id="tree3" transform="matrix(0.241069,0,0,0.241069,611.833,2139.37)">
                <g transform="matrix(0,-3,-3,0,628.265,313.028)">
                    <path d="M-31.49,-31.49C-38.393,-31.49 -43.99,-17.391 -43.99,0.001C-43.99,17.392 -38.393,31.49 -31.49,31.49C-24.587,31.49 -18.99,17.392 -18.99,0.001C-18.99,-17.391 -24.587,-31.49 -31.49,-31.49" style="fill:rgb(198,194,175);fill-rule:nonzero;"/>
                </g>
                <g transform="matrix(3,0,0,3,637.67,416.514)">
                    <path d="M0,-80.113L-3.138,-79.707L-6.272,-80.113L-11.76,0L5.488,0L0,-80.113Z" style="fill:rgb(105,80,32);fill-rule:nonzero;"/>
                </g>
                <g transform="matrix(3,0,0,3,750.527,-209.803)">
                    <path d="M0,147.203L4.527,147.203L-5.821,123.564L0,123.564L-8.411,104.869L-3.235,104.869L-14.878,86.817L-7.763,86.817L-19.406,63.607L-14.878,63.607L-23.935,43.192L-17.466,43.192L-27.817,25.57L-20.699,25.57L-32.99,8.165L-27.17,8.165L-40.754,-21.492L-54.339,8.165L-48.518,8.165L-60.808,25.57L-53.693,25.57L-64.043,43.192L-57.573,43.192L-66.63,63.607L-62.103,63.607L-73.746,86.817L-66.63,86.817L-78.275,104.869L-73.1,104.869L-81.51,123.564L-75.687,123.564L-86.038,147.203L-81.51,147.203L-92.506,168.695L10.998,168.695L0,147.203Z" style="fill:rgb(88,142,63);fill-rule:nonzero;"/>
                </g>
                <g transform="matrix(3,0,0,3,783.521,-274.278)">
                    <path d="M0,190.187L-10.998,168.695L-6.471,168.695L-16.819,145.056L-10.998,145.056L-19.409,126.361L-14.233,126.361L-25.876,108.309L-18.761,108.309L-30.404,85.099L-25.876,85.099L-34.933,64.684L-28.464,64.684L-38.815,47.062L-31.697,47.062L-43.988,29.657L-38.168,29.657L-51.752,0C-41.968,90.241 -51.755,150.557 -67.036,168.259C-82.317,185.961 -103.504,190.187 -103.504,190.187L0,190.187Z" style="fill:rgb(68,114,45);fill-rule:nonzero;"/>
                </g>
            </g>
            <g id="tree2" transform="matrix(0.331132,0,0,0.331132,672.371,2162.91)">
                <g transform="matrix(0,-3,-3,0,628.265,313.028)">
                    <path d="M-31.49,-31.49C-38.393,-31.49 -43.99,-17.391 -43.99,0.001C-43.99,17.392 -38.393,31.49 -31.49,31.49C-24.587,31.49 -18.99,17.392 -18.99,0.001C-18.99,-17.391 -24.587,-31.49 -31.49,-31.49" style="fill:rgb(198,194,175);fill-rule:nonzero;"/>
                </g>
                <g transform="matrix(3,0,0,3,637.67,416.514)">
                    <path d="M0,-80.113L-3.138,-79.707L-6.272,-80.113L-11.76,0L5.488,0L0,-80.113Z" style="fill:rgb(105,80,32);fill-rule:nonzero;"/>
                </g>
                <g transform="matrix(3,0,0,3,750.527,-209.803)">
                    <path d="M0,147.203L4.527,147.203L-5.821,123.564L0,123.564L-8.411,104.869L-3.235,104.869L-14.878,86.817L-7.763,86.817L-19.406,63.607L-14.878,63.607L-23.935,43.192L-17.466,43.192L-27.817,25.57L-20.699,25.57L-32.99,8.165L-27.17,8.165L-40.754,-21.492L-54.339,8.165L-48.518,8.165L-60.808,25.57L-53.693,25.57L-64.043,43.192L-57.573,43.192L-66.63,63.607L-62.103,63.607L-73.746,86.817L-66.63,86.817L-78.275,104.869L-73.1,104.869L-81.51,123.564L-75.687,123.564L-86.038,147.203L-81.51,147.203L-92.506,168.695L10.998,168.695L0,147.203Z" style="fill:rgb(88,142,63);fill-rule:nonzero;"/>
                </g>
                <g transform="matrix(3,0,0,3,783.521,-274.278)">
                    <path d="M0,190.187L-10.998,168.695L-6.471,168.695L-16.819,145.056L-10.998,145.056L-19.409,126.361L-14.233,126.361L-25.876,108.309L-18.761,108.309L-30.404,85.099L-25.876,85.099L-34.933,64.684L-28.464,64.684L-38.815,47.062L-31.697,47.062L-43.988,29.657L-38.168,29.657L-51.752,0C-41.968,90.241 -51.755,150.557 -67.036,168.259C-82.317,185.961 -103.504,190.187 -103.504,190.187L0,190.187Z" style="fill:rgb(68,114,45);fill-rule:nonzero;"/>
                </g>
            </g>
            <g id="tree1" transform="matrix(0.494391,0,0,0.494391,687.093,2154.59)">
                <g transform="matrix(0,-3,-3,0,628.265,313.028)">
                    <path d="M-31.49,-31.49C-38.393,-31.49 -43.99,-17.391 -43.99,0.001C-43.99,17.392 -38.393,31.49 -31.49,31.49C-24.587,31.49 -18.99,17.392 -18.99,0.001C-18.99,-17.391 -24.587,-31.49 -31.49,-31.49" style="fill:rgb(198,194,175);fill-rule:nonzero;"/>
                </g>
                <g transform="matrix(3,0,0,3,637.67,416.514)">
                    <path d="M0,-80.113L-3.138,-79.707L-6.272,-80.113L-11.76,0L5.488,0L0,-80.113Z" style="fill:rgb(105,80,32);fill-rule:nonzero;"/>
                </g>
                <g transform="matrix(3,0,0,3,750.527,-209.803)">
                    <path d="M0,147.203L4.527,147.203L-5.821,123.564L0,123.564L-8.411,104.869L-3.235,104.869L-14.878,86.817L-7.763,86.817L-19.406,63.607L-14.878,63.607L-23.935,43.192L-17.466,43.192L-27.817,25.57L-20.699,25.57L-32.99,8.165L-27.17,8.165L-40.754,-21.492L-54.339,8.165L-48.518,8.165L-60.808,25.57L-53.693,25.57L-64.043,43.192L-57.573,43.192L-66.63,63.607L-62.103,63.607L-73.746,86.817L-66.63,86.817L-78.275,104.869L-73.1,104.869L-81.51,123.564L-75.687,123.564L-86.038,147.203L-81.51,147.203L-92.506,168.695L10.998,168.695L0,147.203Z" style="fill:rgb(88,142,63);fill-rule:nonzero;"/>
                </g>
                <g transform="matrix(3,0,0,3,783.521,-274.278)">
                    <path d="M0,190.187L-10.998,168.695L-6.471,168.695L-16.819,145.056L-10.998,145.056L-19.409,126.361L-14.233,126.361L-25.876,108.309L-18.761,108.309L-30.404,85.099L-25.876,85.099L-34.933,64.684L-28.464,64.684L-38.815,47.062L-31.697,47.062L-43.988,29.657L-38.168,29.657L-51.752,0C-41.968,90.241 -51.755,150.557 -67.036,168.259C-82.317,185.961 -103.504,190.187 -103.504,190.187L0,190.187Z" style="fill:rgb(68,114,45);fill-rule:nonzero;"/>
                </g>
            </g>
            <g id="tree11" serif:id="tree1" transform="matrix(0.137969,0,0,0.137969,1003.34,2179.25)">
                <g transform="matrix(0,-3,-3,0,628.265,313.028)">
                    <path d="M-31.49,-31.49C-38.393,-31.49 -43.99,-17.391 -43.99,0.001C-43.99,17.392 -38.393,31.49 -31.49,31.49C-24.587,31.49 -18.99,17.392 -18.99,0.001C-18.99,-17.391 -24.587,-31.49 -31.49,-31.49" style="fill:rgb(198,194,175);fill-rule:nonzero;"/>
                </g>
                <g transform="matrix(3,0,0,3,637.67,416.514)">
                    <path d="M0,-80.113L-3.138,-79.707L-6.272,-80.113L-11.76,0L5.488,0L0,-80.113Z" style="fill:rgb(105,80,32);fill-rule:nonzero;"/>
                </g>
                <g transform="matrix(3,0,0,3,750.527,-209.803)">
                    <path d="M0,147.203L4.527,147.203L-5.821,123.564L0,123.564L-8.411,104.869L-3.235,104.869L-14.878,86.817L-7.763,86.817L-19.406,63.607L-14.878,63.607L-23.935,43.192L-17.466,43.192L-27.817,25.57L-20.699,25.57L-32.99,8.165L-27.17,8.165L-40.754,-21.492L-54.339,8.165L-48.518,8.165L-60.808,25.57L-53.693,25.57L-64.043,43.192L-57.573,43.192L-66.63,63.607L-62.103,63.607L-73.746,86.817L-66.63,86.817L-78.275,104.869L-73.1,104.869L-81.51,123.564L-75.687,123.564L-86.038,147.203L-81.51,147.203L-92.506,168.695L10.998,168.695L0,147.203Z" style="fill:rgb(88,142,63);fill-rule:nonzero;"/>
                </g>
                <g transform="matrix(3,0,0,3,783.521,-274.278)">
                    <path d="M0,190.187L-10.998,168.695L-6.471,168.695L-16.819,145.056L-10.998,145.056L-19.409,126.361L-14.233,126.361L-25.876,108.309L-18.761,108.309L-30.404,85.099L-25.876,85.099L-34.933,64.684L-28.464,64.684L-38.815,47.062L-31.697,47.062L-43.988,29.657L-38.168,29.657L-51.752,0C-41.968,90.241 -51.755,150.557 -67.036,168.259C-82.317,185.961 -103.504,190.187 -103.504,190.187L0,190.187Z" style="fill:rgb(68,114,45);fill-rule:nonzero;"/>
                </g>
            </g>
            <g transform="matrix(0.779784,0,0,0.779784,9.00772,511.705)">
                <g transform="matrix(0,-0.726453,-0.726453,0,97.2034,2320.02)">
                    <path d="M-77.499,-77.499C-84.401,-77.499 -89.997,-42.803 -89.997,0C-89.997,42.801 -84.401,77.499 -77.499,77.499C-70.597,77.499 -65.001,42.801 -65.001,0C-65.001,-42.803 -70.597,-77.499 -77.499,-77.499" style="fill:rgb(198,194,175);fill-rule:nonzero;"/>
                </g>
                <g transform="matrix(0.726453,0,0,0.726453,56.5145,2324.05)">
                    <path d="M0,71.94C0,71.94 -12.504,59.436 -6.008,44.17C0.487,28.906 19.974,31.34 19.974,31.34C19.974,31.34 14.291,14.096 35.889,7.047C57.488,0 69.18,22.735 69.18,22.735C69.18,22.735 70.316,11.369 80.222,12.18C90.128,12.992 86.393,26.795 82.333,29.717C82.333,29.717 93.539,19.325 100.52,28.256C107.504,37.188 89.965,38.817 89.965,38.817C89.965,38.817 105.555,36.319 110.589,45.603C115.625,54.889 107.016,59.436 107.016,59.436C107.016,59.436 118.546,54.889 121.632,60.897C124.718,66.905 105.88,71.128 105.88,71.128L0,71.94Z" style="fill:rgb(136,200,129);fill-rule:nonzero;"/>
                </g>
            </g>
            <g transform="matrix(1,0,0,1,0,-1)">
                <g transform="matrix(0,-0.726453,-0.726453,0,266.476,2342.95)">
                    <path d="M-77.499,-77.499C-84.401,-77.499 -89.997,-42.803 -89.997,0C-89.997,42.801 -84.401,77.499 -77.499,77.499C-70.597,77.499 -65.001,42.801 -65.001,0C-65.001,-42.803 -70.597,-77.499 -77.499,-77.499" style="fill:rgb(198,194,175);fill-rule:nonzero;"/>
                </g>
                <g transform="matrix(0.726453,0,0,0.726453,225.787,2346.99)">
                    <path d="M0,71.94C0,71.94 -12.504,59.436 -6.008,44.17C0.487,28.906 19.974,31.34 19.974,31.34C19.974,31.34 14.291,14.096 35.889,7.047C57.488,0 69.18,22.735 69.18,22.735C69.18,22.735 70.316,11.369 80.222,12.18C90.128,12.992 86.393,26.795 82.333,29.717C82.333,29.717 93.539,19.325 100.52,28.256C107.504,37.188 89.965,38.817 89.965,38.817C89.965,38.817 105.555,36.319 110.589,45.603C115.625,54.889 107.016,59.436 107.016,59.436C107.016,59.436 118.546,54.889 121.632,60.897C124.718,66.905 105.88,71.128 105.88,71.128L0,71.94Z" style="fill:rgb(136,200,129);fill-rule:nonzero;"/>
                </g>
            </g>
            <g transform="matrix(0.735646,0,0,0.735646,37.3918,592.974)">
                <g transform="matrix(0,-0.648001,-0.648001,0,183.02,2264.41)">
                    <path d="M-64.158,-64.158C-71.061,-64.158 -76.658,-35.434 -76.658,0C-76.658,35.434 -71.061,64.158 -64.158,64.158C-57.255,64.158 -51.658,35.434 -51.658,0C-51.658,-35.434 -57.255,-64.158 -64.158,-64.158" style="fill:rgb(198,194,175);fill-rule:nonzero;"/>
                </g>
                <g transform="matrix(0.648001,0,0,0.648001,153.502,2246.89)">
                    <path d="M0,91.207C0,91.207 9.469,28.402 -8.204,8.836C-8.204,8.836 10.73,22.091 10.73,67.535C10.73,67.535 14.518,35.976 6.943,6.311C6.943,6.311 21.461,26.509 18.305,70.06C18.305,70.06 19.567,13.886 25.879,0C25.879,0 20.198,57.436 29.034,73.847C29.034,73.847 34.083,37.238 32.821,14.517C32.821,14.517 43.552,46.705 37.239,72.584C37.239,72.584 51.316,32.821 39.229,0C39.229,0 58.556,32.82 53.263,74.478C53.263,74.478 63.118,6.942 80.79,5.049C80.79,5.049 65.643,22.722 71.323,73.215C71.323,73.215 84.283,48.676 80.79,27.489C80.79,27.489 86.403,43.551 81.388,75.74C81.388,75.74 97.832,13.321 124.341,27.489C124.341,27.489 97.832,21.467 93.413,91.207L0,91.207Z" style="fill:rgb(148,200,91);fill-rule:nonzero;"/>
                </g>
                <g transform="matrix(0.648001,0,0,0.648001,216.024,2305.99)">
                    <path d="M0,-25.308C-10.99,-4.907 -96.483,0 -96.483,0L-3.07,0C-2.444,-9.88 -1.374,-18.237 0,-25.308" style="fill:rgb(139,183,81);fill-rule:nonzero;"/>
                </g>
            </g>
            <g transform="matrix(1,0,0,1,0,-1)">
                <g transform="matrix(0,-0.648001,-0.648001,0,342.296,2307.12)">
                    <path d="M-64.158,-64.158C-71.061,-64.158 -76.658,-35.434 -76.658,0C-76.658,35.434 -71.061,64.158 -64.158,64.158C-57.255,64.158 -51.658,35.434 -51.658,0C-51.658,-35.434 -57.255,-64.158 -64.158,-64.158" style="fill:rgb(198,194,175);fill-rule:nonzero;"/>
                </g>
                <g transform="matrix(0.648001,0,0,0.648001,312.778,2289.59)">
                    <path d="M0,91.207C0,91.207 9.469,28.402 -8.204,8.836C-8.204,8.836 10.73,22.091 10.73,67.535C10.73,67.535 14.518,35.976 6.943,6.311C6.943,6.311 21.461,26.509 18.305,70.06C18.305,70.06 19.567,13.886 25.879,0C25.879,0 20.198,57.436 29.034,73.847C29.034,73.847 34.083,37.238 32.821,14.517C32.821,14.517 43.552,46.705 37.239,72.584C37.239,72.584 51.316,32.821 39.229,0C39.229,0 58.556,32.82 53.263,74.478C53.263,74.478 63.118,6.942 80.79,5.049C80.79,5.049 65.643,22.722 71.323,73.215C71.323,73.215 84.283,48.676 80.79,27.489C80.79,27.489 86.403,43.551 81.388,75.74C81.388,75.74 97.832,13.321 124.341,27.489C124.341,27.489 97.832,21.467 93.413,91.207L0,91.207Z" style="fill:rgb(148,200,91);fill-rule:nonzero;"/>
                </g>
                <g transform="matrix(0.648001,0,0,0.648001,375.299,2348.69)">
                    <path d="M0,-25.308C-10.99,-4.907 -96.483,0 -96.483,0L-3.07,0C-2.444,-9.88 -1.374,-18.237 0,-25.308" style="fill:rgb(139,183,81);fill-rule:nonzero;"/>
                </g>
            </g>
            <g transform="matrix(1,0,0,1,0,-1)">
                <g transform="matrix(0,-1.09477,-1.09477,0,65.675,2265.93)">
                    <path d="M-31.491,-31.491C-38.394,-31.491 -43.991,-17.392 -43.991,0C-43.991,17.392 -38.394,31.491 -31.491,31.491C-24.588,31.491 -18.991,17.392 -18.991,0C-18.991,-17.392 -24.588,-31.491 -31.491,-31.491" style="fill:rgb(198,194,175);fill-rule:nonzero;"/>
                </g>
                <g transform="matrix(1.09477,0,0,1.09477,66.3606,2029.56)">
                    <path d="M0,179.107C0,179.107 -17.121,174.505 -24.363,150.482C-31.603,126.457 -32.749,66.453 -24.363,42.427C-15.977,18.401 3.368,0 14.951,16.357C26.533,32.716 33.545,108.056 25.558,140.257C17.571,172.463 5.99,177.576 0,179.107" style="fill:rgb(75,130,61);fill-rule:nonzero;"/>
                </g>
                <g transform="matrix(1.09477,0,0,1.09477,59.7081,2218.78)">
                    <path d="M0,-158.449C14.124,-156.953 21.37,-124.437 24.369,-100.939C27.369,-77.439 29.735,-25.627 10.109,-19.496C-9.33,-13.424 -19.196,-26.241 -19.381,-26.485C-19.032,-25.02 -18.67,-23.626 -18.286,-22.353C-11.044,1.67 6.077,6.272 6.077,6.272C12.067,4.74 23.648,-0.372 31.635,-32.578C39.622,-64.779 32.609,-140.119 21.027,-156.479C15.19,-164.721 7.383,-164.131 0,-158.449" style="fill:rgb(63,109,50);fill-rule:nonzero;"/>
                </g>
                <g transform="matrix(1.09477,0,0,1.09477,57.9499,2146.95)">
                    <path d="M0,143.172C0,143.172 2.188,55.534 1.561,52.591C0.937,49.642 -6.868,36.18 -6.868,36.18C-6.868,36.18 3.125,48.382 4.061,43.335C4.999,38.286 6.871,0 6.871,0C6.871,0 7.495,38.706 9.992,38.286C12.491,37.865 22.794,22.718 22.794,22.718C22.794,22.718 10.928,42.915 10.928,50.486C10.928,58.058 11.868,143.172 11.868,143.172L0,143.172Z" style="fill:rgb(105,80,32);fill-rule:nonzero;"/>
                </g>
            </g>
            <g transform="matrix(1,0,0,1,0,-1)">
                <g transform="matrix(0,-1.09477,-1.09477,0,224.595,2310.63)">
                    <path d="M-31.491,-31.491C-38.394,-31.491 -43.991,-17.392 -43.991,0C-43.991,17.392 -38.394,31.491 -31.491,31.491C-24.588,31.491 -18.991,17.392 -18.991,0C-18.991,-17.392 -24.588,-31.491 -31.491,-31.491" style="fill:rgb(198,194,175);fill-rule:nonzero;"/>
                </g>
                <g transform="matrix(1.09477,0,0,1.09477,225.28,2074.26)">
                    <path d="M0,179.107C0,179.107 -17.121,174.505 -24.363,150.482C-31.603,126.457 -32.749,66.453 -24.363,42.427C-15.977,18.401 3.368,0 14.951,16.357C26.533,32.716 33.545,108.056 25.558,140.257C17.571,172.463 5.99,177.576 0,179.107" style="fill:rgb(75,130,61);fill-rule:nonzero;"/>
                </g>
                <g transform="matrix(1.09477,0,0,1.09477,218.628,2263.48)">
                    <path d="M0,-158.449C14.124,-156.953 21.37,-124.437 24.369,-100.939C27.369,-77.439 29.735,-25.627 10.109,-19.496C-9.33,-13.424 -19.196,-26.241 -19.381,-26.485C-19.032,-25.02 -18.67,-23.626 -18.286,-22.353C-11.044,1.67 6.077,6.272 6.077,6.272C12.067,4.74 23.648,-0.372 31.635,-32.578C39.622,-64.779 32.609,-140.119 21.027,-156.479C15.19,-164.721 7.383,-164.131 0,-158.449" style="fill:rgb(63,109,50);fill-rule:nonzero;"/>
                </g>
                <g transform="matrix(1.09477,0,0,1.09477,216.87,2191.66)">
                    <path d="M0,143.172C0,143.172 2.188,55.534 1.561,52.591C0.937,49.642 -6.868,36.18 -6.868,36.18C-6.868,36.18 3.125,48.382 4.061,43.335C4.999,38.286 6.871,0 6.871,0C6.871,0 7.495,38.706 9.992,38.286C12.491,37.865 22.794,22.718 22.794,22.718C22.794,22.718 10.928,42.915 10.928,50.486C10.928,58.058 11.868,143.172 11.868,143.172L0,143.172Z" style="fill:rgb(105,80,32);fill-rule:nonzero;"/>
                </g>
            </g>
            <g transform="matrix(0.507068,0,0,0.507068,226.372,1060.35)">
                <g transform="matrix(0,-1.09477,-1.09477,0,224.595,2310.63)">
                    <path d="M-31.491,-31.491C-38.394,-31.491 -43.991,-17.392 -43.991,0C-43.991,17.392 -38.394,31.491 -31.491,31.491C-24.588,31.491 -18.991,17.392 -18.991,0C-18.991,-17.392 -24.588,-31.491 -31.491,-31.491" style="fill:rgb(198,194,175);fill-rule:nonzero;"/>
                </g>
                <g transform="matrix(1.09477,0,0,1.09477,225.28,2074.26)">
                    <path d="M0,179.107C0,179.107 -17.121,174.505 -24.363,150.482C-31.603,126.457 -32.749,66.453 -24.363,42.427C-15.977,18.401 3.368,0 14.951,16.357C26.533,32.716 33.545,108.056 25.558,140.257C17.571,172.463 5.99,177.576 0,179.107" style="fill:rgb(75,130,61);fill-rule:nonzero;"/>
                </g>
                <g transform="matrix(1.09477,0,0,1.09477,218.628,2263.48)">
                    <path d="M0,-158.449C14.124,-156.953 21.37,-124.437 24.369,-100.939C27.369,-77.439 29.735,-25.627 10.109,-19.496C-9.33,-13.424 -19.196,-26.241 -19.381,-26.485C-19.032,-25.02 -18.67,-23.626 -18.286,-22.353C-11.044,1.67 6.077,6.272 6.077,6.272C12.067,4.74 23.648,-0.372 31.635,-32.578C39.622,-64.779 32.609,-140.119 21.027,-156.479C15.19,-164.721 7.383,-164.131 0,-158.449" style="fill:rgb(63,109,50);fill-rule:nonzero;"/>
                </g>
                <g transform="matrix(1.09477,0,0,1.09477,216.87,2191.66)">
                    <path d="M0,143.172C0,143.172 2.188,55.534 1.561,52.591C0.937,49.642 -6.868,36.18 -6.868,36.18C-6.868,36.18 3.125,48.382 4.061,43.335C4.999,38.286 6.871,0 6.871,0C6.871,0 7.495,38.706 9.992,38.286C12.491,37.865 22.794,22.718 22.794,22.718C22.794,22.718 10.928,42.915 10.928,50.486C10.928,58.058 11.868,143.172 11.868,143.172L0,143.172Z" style="fill:rgb(105,80,32);fill-rule:nonzero;"/>
                </g>
            </g>
            <g transform="matrix(0.391686,0,0,0.391686,38.7385,1322.74)">
                <g transform="matrix(0,-1.09477,-1.09477,0,224.595,2310.63)">
                    <path d="M-31.491,-31.491C-38.394,-31.491 -43.991,-17.392 -43.991,0C-43.991,17.392 -38.394,31.491 -31.491,31.491C-24.588,31.491 -18.991,17.392 -18.991,0C-18.991,-17.392 -24.588,-31.491 -31.491,-31.491" style="fill:rgb(198,194,175);fill-rule:nonzero;"/>
                </g>
                <g transform="matrix(1.09477,0,0,1.09477,225.28,2074.26)">
                    <path d="M0,179.107C0,179.107 -17.121,174.505 -24.363,150.482C-31.603,126.457 -32.749,66.453 -24.363,42.427C-15.977,18.401 3.368,0 14.951,16.357C26.533,32.716 33.545,108.056 25.558,140.257C17.571,172.463 5.99,177.576 0,179.107" style="fill:rgb(75,130,61);fill-rule:nonzero;"/>
                </g>
                <g transform="matrix(1.09477,0,0,1.09477,218.628,2263.48)">
                    <path d="M0,-158.449C14.124,-156.953 21.37,-124.437 24.369,-100.939C27.369,-77.439 29.735,-25.627 10.109,-19.496C-9.33,-13.424 -19.196,-26.241 -19.381,-26.485C-19.032,-25.02 -18.67,-23.626 -18.286,-22.353C-11.044,1.67 6.077,6.272 6.077,6.272C12.067,4.74 23.648,-0.372 31.635,-32.578C39.622,-64.779 32.609,-140.119 21.027,-156.479C15.19,-164.721 7.383,-164.131 0,-158.449" style="fill:rgb(63,109,50);fill-rule:nonzero;"/>
                </g>
                <g transform="matrix(1.09477,0,0,1.09477,216.87,2191.66)">
                    <path d="M0,143.172C0,143.172 2.188,55.534 1.561,52.591C0.937,49.642 -6.868,36.18 -6.868,36.18C-6.868,36.18 3.125,48.382 4.061,43.335C4.999,38.286 6.871,0 6.871,0C6.871,0 7.495,38.706 9.992,38.286C12.491,37.865 22.794,22.718 22.794,22.718C22.794,22.718 10.928,42.915 10.928,50.486C10.928,58.058 11.868,143.172 11.868,143.172L0,143.172Z" style="fill:rgb(105,80,32);fill-rule:nonzero;"/>
                </g>
            </g>
        </g>
    </g>
</svg>
